<?xml version="1.0" encoding="utf-8"?>
<!-- Generator: Adobe Illustrator 26.3.1, SVG Export Plug-In . SVG Version: 6.00 Build 0)  -->
<svg version="1.1" id="Capa_1" xmlns="http://www.w3.org/2000/svg" xmlns:xlink="http://www.w3.org/1999/xlink" x="0px" y="0px"
	 viewBox="0 0 1366 768" style="enable-background:new 0 0 1366 768;" xml:space="preserve">
<style type="text/css">
	.st0{fill:url(#SVGID_1_);}
	.st1{fill:url(#SVGID_00000156588147751714233140000017877629683600913326_);}
	.st2{fill:url(#SVGID_00000128460720667630132950000010870991063985956287_);}
	.st3{fill:url(#SVGID_00000160154057824171501860000012749781094105225089_);}
	.st4{fill:url(#SVGID_00000164495635957969626880000004816337727491521419_);}
	.st5{fill:url(#SVGID_00000059308449282555866140000011069270650820743590_);}
	
		.st6{fill:none;stroke:url(#SVGID_00000075865891171757533470000014598300488802285233_);stroke-width:0.7999;stroke-linecap:round;stroke-linejoin:round;stroke-miterlimit:10;}
	
		.st7{fill:none;stroke:url(#SVGID_00000109016167772491018510000001671995518850442941_);stroke-width:0.7999;stroke-linecap:round;stroke-linejoin:round;stroke-miterlimit:10;}
	
		.st8{fill:none;stroke:url(#SVGID_00000144315450493568400850000016181336027271838094_);stroke-width:0.7999;stroke-linecap:round;stroke-linejoin:round;stroke-miterlimit:10;}
	
		.st9{fill:none;stroke:url(#SVGID_00000054227499947643987640000002374937295107985340_);stroke-width:0.7999;stroke-linecap:round;stroke-linejoin:round;stroke-miterlimit:10;}
	.st10{fill:none;stroke:#00CDD7;stroke-width:0.6985;stroke-miterlimit:10;}
	.st11{fill:url(#SVGID_00000018225097450215322400000012565150905233057688_);}
	.st12{fill:url(#SVGID_00000155116550978625481930000015784268683367583660_);}
	.st13{fill:url(#SVGID_00000090989834098628359900000017504603775974580151_);}
	.st14{fill:url(#SVGID_00000082359961030866982660000017814787319476052410_);}
	.st15{fill:url(#SVGID_00000133528030508958098680000006061433918127015301_);}
	.st16{fill:url(#SVGID_00000180364971810975203620000000940423561729029275_);}
	.st17{fill:url(#SVGID_00000066490865217041321010000003687986153744683706_);}
	.st18{fill:url(#SVGID_00000069360867338184076380000006314515965899351426_);}
	.st19{fill:url(#SVGID_00000169522951741907992120000009794848013620724398_);}
	.st20{fill:url(#SVGID_00000034077900165399316140000016849097963441320637_);}
	.st21{fill:url(#SVGID_00000134946910829221719370000005107452974328297344_);}
	.st22{fill:#00CDD7;}
	.st23{fill:none;stroke:#00CDD7;stroke-width:1.0404;stroke-miterlimit:10;}
</style>
<g>
	
		<linearGradient id="SVGID_1_" gradientUnits="userSpaceOnUse" x1="458.6989" y1="628.4587" x2="457.6219" y2="750.1631" gradientTransform="matrix(0 1 -1 0 1024.8467 -304.2154)">
		<stop  offset="0" style="stop-color:#000000;stop-opacity:0"/>
		<stop  offset="1" style="stop-color:#FFFFFF"/>
	</linearGradient>
	<path class="st0" d="M335.5,153c-1.4-41.6-12.7-74.9-25.2-74.5c-12.5,0.4-21.5,34.5-20.1,76c1.4,41.6,12.7,74.9,25.2,74.5
		C327.9,228.6,336.9,194.5,335.5,153z M294.4,154.4c-1.1-33.8,6.2-61.5,16.4-61.8c10.2-0.3,19.4,26.8,20.5,60.6s-6.2,61.5-16.4,61.8
		C304.7,215.3,295.6,188.2,294.4,154.4z"/>
	
		<linearGradient id="SVGID_00000143591713511922226180000004837845907672616624_" gradientUnits="userSpaceOnUse" x1="458.6766" y1="612.2135" x2="457.6321" y2="730.251" gradientTransform="matrix(0 1 -1 0 1024.8467 -304.2154)">
		<stop  offset="0" style="stop-color:#000000;stop-opacity:0"/>
		<stop  offset="1" style="stop-color:#FFFFFF"/>
	</linearGradient>
	<path style="fill:url(#SVGID_00000143591713511922226180000004837845907672616624_);" d="M353.6,153c-1.4-40.3-12.3-72.7-24.4-72.2
		c-12.1,0.4-20.9,33.4-19.5,73.7s12.3,72.7,24.4,72.2C346.2,226.3,355,193.3,353.6,153z M313.7,154.3c-1.1-32.8,6-59.6,15.9-60
		c9.9-0.3,18.8,26,19.9,58.8c1.1,32.8-6,59.6-15.9,60C323.8,213.5,314.8,187.1,313.7,154.3z"/>
	
		<linearGradient id="SVGID_00000053510740945142680250000012482157451824613010_" gradientUnits="userSpaceOnUse" x1="458.6509" y1="596.8876" x2="457.6439" y2="710.6884" gradientTransform="matrix(0 1 -1 0 1024.8467 -304.2154)">
		<stop  offset="0" style="stop-color:#000000;stop-opacity:0"/>
		<stop  offset="1" style="stop-color:#FFFFFF"/>
	</linearGradient>
	<path style="fill:url(#SVGID_00000053510740945142680250000012482157451824613010_);" d="M371.1,153c-1.3-38.9-11.9-70-23.6-69.7
		c-11.7,0.4-20.1,32.2-18.8,71.1c1.3,38.9,11.9,70,23.6,69.7C363.9,223.7,372.4,191.9,371.1,153z M332.6,154.3
		c-1.1-31.6,5.8-57.5,15.3-57.8c9.5-0.3,18.1,25.1,19.2,56.7s-5.8,57.5-15.3,57.8C342.3,211.3,333.7,185.9,332.6,154.3z"/>
	
		<linearGradient id="SVGID_00000052817821177487446590000018099612429406885523_" gradientUnits="userSpaceOnUse" x1="458.6363" y1="581.0542" x2="457.6505" y2="692.4446" gradientTransform="matrix(0 1 -1 0 1024.8467 -304.2154)">
		<stop  offset="0" style="stop-color:#000000;stop-opacity:0"/>
		<stop  offset="1" style="stop-color:#FFFFFF"/>
	</linearGradient>
	<path style="fill:url(#SVGID_00000052817821177487446590000018099612429406885523_);" d="M388.1,153c-1.3-38-11.6-68.6-23.1-68.2
		c-11.5,0.4-19.7,31.5-18.4,69.6c1.3,38,11.6,68.6,23.1,68.2C381.1,222.2,389.4,191.1,388.1,153z M350.5,154.3
		c-1-30.9,5.7-56.3,15-56.6c9.3-0.3,17.7,24.5,18.8,55.5c1,30.9-5.7,56.3-15,56.6C359.9,210.1,351.5,185.3,350.5,154.3z"/>
	
		<linearGradient id="SVGID_00000183211093214471965250000012375663935251639740_" gradientUnits="userSpaceOnUse" x1="458.6095" y1="566.8474" x2="457.6628" y2="673.8344" gradientTransform="matrix(0 1 -1 0 1024.8467 -304.2154)">
		<stop  offset="0" style="stop-color:#000000;stop-opacity:0"/>
		<stop  offset="1" style="stop-color:#FFFFFF"/>
	</linearGradient>
	<path style="fill:url(#SVGID_00000183211093214471965250000012375663935251639740_);" d="M404.5,153.1
		c-1.2-36.5-11.2-65.9-22.2-65.5c-11,0.4-18.9,30.3-17.7,66.8c1.2,36.5,11.2,65.9,22.2,65.5C397.8,219.5,405.7,189.6,404.5,153.1z
		 M368.4,154.3c-1-29.7,5.4-54.1,14.4-54.4c9-0.3,17,23.6,18,53.3s-5.4,54.1-14.4,54.4C377.4,207.9,369.4,184,368.4,154.3z"/>
	<g>
		
			<linearGradient id="SVGID_00000070119481203064754590000007816379799364705421_" gradientUnits="userSpaceOnUse" x1="458.7299" y1="646.0482" x2="457.6077" y2="772.8667" gradientTransform="matrix(0 1 -1 0 1024.8467 -304.2154)">
			<stop  offset="0" style="stop-color:#000000;stop-opacity:0"/>
			<stop  offset="1" style="stop-color:#FFFFFF"/>
		</linearGradient>
		<path style="fill:url(#SVGID_00000070119481203064754590000007816379799364705421_);" d="M315.4,152.9
			c-1.5-43.3-13.2-78.1-26.3-77.6c-13,0.4-22.4,35.9-21,79.2c1.5,43.3,13.2,78.1,26.3,77.6C307.5,231.7,316.9,196.3,315.4,152.9z
			 M272.6,154.4c-1.2-35.2,6.5-64.1,17.1-64.4c10.6-0.4,20.2,27.9,21.4,63.1c1.2,35.2-6.5,64.1-17.1,64.4
			C283.3,217.9,273.7,189.6,272.6,154.4z"/>
	</g>
</g>
<g>
	
		<linearGradient id="SVGID_00000004542960509258708790000002965012932748837548_" gradientUnits="userSpaceOnUse" x1="468.4295" y1="118.2479" x2="468.2303" y2="140.7571">
		<stop  offset="0.7892" style="stop-color:#FFFFFF"/>
		<stop  offset="0.8677" style="stop-color:#FDFDFD;stop-opacity:0.6274"/>
		<stop  offset="0.896" style="stop-color:#F6F6F6;stop-opacity:0.4931"/>
		<stop  offset="0.9162" style="stop-color:#EBEBEB;stop-opacity:0.3974"/>
		<stop  offset="0.9325" style="stop-color:#DADADA;stop-opacity:0.32"/>
		<stop  offset="0.9465" style="stop-color:#C4C4C4;stop-opacity:0.2537"/>
		<stop  offset="0.9589" style="stop-color:#A8A8A8;stop-opacity:0.195"/>
		<stop  offset="0.9701" style="stop-color:#888888;stop-opacity:0.1419"/>
		<stop  offset="0.9804" style="stop-color:#626262;stop-opacity:9.308982e-02"/>
		<stop  offset="0.9899" style="stop-color:#373737;stop-opacity:4.767627e-02"/>
		<stop  offset="0.9984" style="stop-color:#090909;stop-opacity:7.380247e-03"/>
		<stop  offset="1" style="stop-color:#000000;stop-opacity:0"/>
	</linearGradient>
	
		<polyline style="fill:none;stroke:url(#SVGID_00000004542960509258708790000002965012932748837548_);stroke-width:0.7999;stroke-linecap:round;stroke-linejoin:round;stroke-miterlimit:10;" points="
		370,118 396.8,118 420,135.6 566.6,141.2 	"/>
	
		<linearGradient id="SVGID_00000132786047586360368220000010212105647292264125_" gradientUnits="userSpaceOnUse" x1="469.4416" y1="106.6149" x2="469.1923" y2="134.784">
		<stop  offset="0.7892" style="stop-color:#FFFFFF"/>
		<stop  offset="0.8677" style="stop-color:#FDFDFD;stop-opacity:0.6274"/>
		<stop  offset="0.896" style="stop-color:#F6F6F6;stop-opacity:0.4931"/>
		<stop  offset="0.9162" style="stop-color:#EBEBEB;stop-opacity:0.3974"/>
		<stop  offset="0.9325" style="stop-color:#DADADA;stop-opacity:0.32"/>
		<stop  offset="0.9465" style="stop-color:#C4C4C4;stop-opacity:0.2537"/>
		<stop  offset="0.9589" style="stop-color:#A8A8A8;stop-opacity:0.195"/>
		<stop  offset="0.9701" style="stop-color:#888888;stop-opacity:0.1419"/>
		<stop  offset="0.9804" style="stop-color:#626262;stop-opacity:9.308982e-02"/>
		<stop  offset="0.9899" style="stop-color:#373737;stop-opacity:4.767627e-02"/>
		<stop  offset="0.9984" style="stop-color:#090909;stop-opacity:7.380247e-03"/>
		<stop  offset="1" style="stop-color:#000000;stop-opacity:0"/>
	</linearGradient>
	
		<polyline style="fill:none;stroke:url(#SVGID_00000132786047586360368220000010212105647292264125_);stroke-width:0.7999;stroke-linecap:round;stroke-linejoin:round;stroke-miterlimit:10;" points="
		372,106.4 400.7,106.4 423.9,129.6 566.6,135.2 	"/>
	
		<linearGradient id="SVGID_00000101801373941184270720000009050966355644441476_" gradientUnits="userSpaceOnUse" x1="469.4164" y1="569.566" x2="469.2172" y2="592.0753" gradientTransform="matrix(1 0 0 -1 0 758.7983)">
		<stop  offset="0.7892" style="stop-color:#FFFFFF"/>
		<stop  offset="0.8677" style="stop-color:#FDFDFD;stop-opacity:0.6274"/>
		<stop  offset="0.896" style="stop-color:#F6F6F6;stop-opacity:0.4931"/>
		<stop  offset="0.9162" style="stop-color:#EBEBEB;stop-opacity:0.3974"/>
		<stop  offset="0.9325" style="stop-color:#DADADA;stop-opacity:0.32"/>
		<stop  offset="0.9465" style="stop-color:#C4C4C4;stop-opacity:0.2537"/>
		<stop  offset="0.9589" style="stop-color:#A8A8A8;stop-opacity:0.195"/>
		<stop  offset="0.9701" style="stop-color:#888888;stop-opacity:0.1419"/>
		<stop  offset="0.9804" style="stop-color:#626262;stop-opacity:9.308982e-02"/>
		<stop  offset="0.9899" style="stop-color:#373737;stop-opacity:4.767627e-02"/>
		<stop  offset="0.9984" style="stop-color:#090909;stop-opacity:7.380247e-03"/>
		<stop  offset="1" style="stop-color:#000000;stop-opacity:0"/>
	</linearGradient>
	
		<polyline style="fill:none;stroke:url(#SVGID_00000101801373941184270720000009050966355644441476_);stroke-width:0.7999;stroke-linecap:round;stroke-linejoin:round;stroke-miterlimit:10;" points="
		372,189.5 396.8,189.5 420,171.9 566.6,166.3 	"/>
	
		<linearGradient id="SVGID_00000044886111216997735800000011517853868999385747_" gradientUnits="userSpaceOnUse" x1="470.3704" y1="557.9326" x2="470.1211" y2="586.1017" gradientTransform="matrix(1 0 0 -1 0 758.7983)">
		<stop  offset="0.7892" style="stop-color:#FFFFFF"/>
		<stop  offset="0.8677" style="stop-color:#FDFDFD;stop-opacity:0.6274"/>
		<stop  offset="0.896" style="stop-color:#F6F6F6;stop-opacity:0.4931"/>
		<stop  offset="0.9162" style="stop-color:#EBEBEB;stop-opacity:0.3974"/>
		<stop  offset="0.9325" style="stop-color:#DADADA;stop-opacity:0.32"/>
		<stop  offset="0.9465" style="stop-color:#C4C4C4;stop-opacity:0.2537"/>
		<stop  offset="0.9589" style="stop-color:#A8A8A8;stop-opacity:0.195"/>
		<stop  offset="0.9701" style="stop-color:#888888;stop-opacity:0.1419"/>
		<stop  offset="0.9804" style="stop-color:#626262;stop-opacity:9.308982e-02"/>
		<stop  offset="0.9899" style="stop-color:#373737;stop-opacity:4.767627e-02"/>
		<stop  offset="0.9984" style="stop-color:#090909;stop-opacity:7.380247e-03"/>
		<stop  offset="1" style="stop-color:#000000;stop-opacity:0"/>
	</linearGradient>
	
		<polyline style="fill:none;stroke:url(#SVGID_00000044886111216997735800000011517853868999385747_);stroke-width:0.7999;stroke-linecap:round;stroke-linejoin:round;stroke-miterlimit:10;" points="
		373.9,201.1 400.7,201.1 423.9,177.9 566.6,172.2 	"/>
</g>
<polyline class="st10" points="726.3,259.3 726.3,219.9 681.3,174.8 681.3,100.2 1016.1,100.2 1058.3,142.4 1058.3,179.7 "/>
<g>
	
		<linearGradient id="SVGID_00000135674530050947991760000016357409724555503039_" gradientUnits="userSpaceOnUse" x1="1119.7001" y1="267.791" x2="774.2025" y2="237.1773">
		<stop  offset="0" style="stop-color:#000000;stop-opacity:0"/>
		<stop  offset="1" style="stop-color:#FFFFFF"/>
	</linearGradient>
	
		<rect x="752.2" y="223.3" style="fill:url(#SVGID_00000135674530050947991760000016357409724555503039_);" width="15.2" height="25.3"/>
	
		<linearGradient id="SVGID_00000075142245246302265460000014774923028819176616_" gradientUnits="userSpaceOnUse" x1="1120.8737" y1="265.6043" x2="775.3706" y2="234.9901">
		<stop  offset="0" style="stop-color:#000000;stop-opacity:0"/>
		<stop  offset="1" style="stop-color:#FFFFFF"/>
	</linearGradient>
	
		<rect x="778.1" y="223.3" style="fill:url(#SVGID_00000075142245246302265460000014774923028819176616_);" width="15.2" height="25.3"/>
	
		<linearGradient id="SVGID_00000081643068668438341390000008571601441165321384_" gradientUnits="userSpaceOnUse" x1="1122.035" y1="263.4165" x2="776.5374" y2="232.8029">
		<stop  offset="0" style="stop-color:#000000;stop-opacity:0"/>
		<stop  offset="1" style="stop-color:#FFFFFF"/>
	</linearGradient>
	
		<rect x="803.9" y="223.3" style="fill:url(#SVGID_00000081643068668438341390000008571601441165321384_);" width="15.2" height="25.3"/>
	
		<linearGradient id="SVGID_00000086675713357142597740000010156934213759040688_" gradientUnits="userSpaceOnUse" x1="1123.2079" y1="261.2297" x2="777.7048" y2="230.6156">
		<stop  offset="0" style="stop-color:#000000;stop-opacity:0"/>
		<stop  offset="1" style="stop-color:#FFFFFF"/>
	</linearGradient>
	
		<rect x="829.8" y="223.3" style="fill:url(#SVGID_00000086675713357142597740000010156934213759040688_);" width="15.2" height="25.3"/>
	
		<linearGradient id="SVGID_00000168104425846514092730000001196616832782220445_" gradientUnits="userSpaceOnUse" x1="1124.3717" y1="259.0422" x2="778.874" y2="228.4286">
		<stop  offset="0" style="stop-color:#000000;stop-opacity:0"/>
		<stop  offset="1" style="stop-color:#FFFFFF"/>
	</linearGradient>
	
		<rect x="855.6" y="223.3" style="fill:url(#SVGID_00000168104425846514092730000001196616832782220445_);" width="15.2" height="25.3"/>
	
		<linearGradient id="SVGID_00000059988112025513841670000012494733082547028876_" gradientUnits="userSpaceOnUse" x1="1125.542" y1="256.8552" x2="780.0389" y2="226.2411">
		<stop  offset="0" style="stop-color:#000000;stop-opacity:0"/>
		<stop  offset="1" style="stop-color:#FFFFFF"/>
	</linearGradient>
	
		<rect x="881.5" y="223.3" style="fill:url(#SVGID_00000059988112025513841670000012494733082547028876_);" width="15.2" height="25.3"/>
	
		<linearGradient id="SVGID_00000046321759698926838630000015077468502320857228_" gradientUnits="userSpaceOnUse" x1="1126.707" y1="254.6678" x2="781.2087" y2="224.0541">
		<stop  offset="0" style="stop-color:#000000;stop-opacity:0"/>
		<stop  offset="1" style="stop-color:#FFFFFF"/>
	</linearGradient>
	
		<rect x="907.4" y="223.3" style="fill:url(#SVGID_00000046321759698926838630000015077468502320857228_);" width="15.2" height="25.3"/>
	
		<linearGradient id="SVGID_00000145774322192592034890000015392130716690714001_" gradientUnits="userSpaceOnUse" x1="1127.8765" y1="252.4807" x2="782.3729" y2="221.8666">
		<stop  offset="0" style="stop-color:#000000;stop-opacity:0"/>
		<stop  offset="1" style="stop-color:#FFFFFF"/>
	</linearGradient>
	
		<rect x="933.2" y="223.3" style="fill:url(#SVGID_00000145774322192592034890000015392130716690714001_);" width="15.2" height="25.3"/>
	
		<linearGradient id="SVGID_00000073703616796886531510000009795641768493109910_" gradientUnits="userSpaceOnUse" x1="1129.0417" y1="250.2933" x2="783.5441" y2="219.6797">
		<stop  offset="0" style="stop-color:#000000;stop-opacity:0"/>
		<stop  offset="1" style="stop-color:#FFFFFF"/>
	</linearGradient>
	
		<rect x="959.1" y="223.3" style="fill:url(#SVGID_00000073703616796886531510000009795641768493109910_);" width="15.2" height="25.3"/>
	
		<linearGradient id="SVGID_00000096758969341331659770000005987608244351238288_" gradientUnits="userSpaceOnUse" x1="1130.2115" y1="248.1063" x2="784.7085" y2="217.4922">
		<stop  offset="0" style="stop-color:#000000;stop-opacity:0"/>
		<stop  offset="1" style="stop-color:#FFFFFF"/>
	</linearGradient>
	
		<rect x="984.9" y="223.3" style="fill:url(#SVGID_00000096758969341331659770000005987608244351238288_);" width="15.2" height="25.3"/>
	
		<linearGradient id="SVGID_00000142145774899671169180000003696547320637006494_" gradientUnits="userSpaceOnUse" x1="1131.3768" y1="245.9189" x2="785.8792" y2="215.3052">
		<stop  offset="0" style="stop-color:#000000;stop-opacity:0"/>
		<stop  offset="1" style="stop-color:#FFFFFF"/>
	</linearGradient>
	
		<rect x="1010.8" y="223.3" style="fill:url(#SVGID_00000142145774899671169180000003696547320637006494_);" width="15.2" height="25.3"/>
</g>
<rect x="718.8" y="251.8" class="st22" width="14.9" height="14.9"/>
<rect x="1048.1" y="172.3" class="st22" width="14.9" height="14.9"/>
<g>
	<g>
		<polygon class="st22" points="1092.4,500.2 1061.3,469.2 667,457.7 667,455.3 1062.3,466.8 1094.1,498.5 		"/>
	</g>
	<g>
		<rect x="1085.4" y="491.5" class="st22" width="15.7" height="15.7"/>
	</g>
</g>
<g>
	<g>
		<polygon class="st22" points="1165.7,435.7 1134.7,404.6 667,409.2 667,406.8 1135.7,402.2 1167.4,434 		"/>
	</g>
	<g>
		<rect x="1154.3" y="427" class="st22" width="15.7" height="15.7"/>
	</g>
</g>
<g>
	<g>
		<polygon class="st22" points="1100.3,420 1069.2,388.9 667,398.1 667,395.7 1070.2,386.5 1102,418.3 		"/>
	</g>
	<g>
		<rect x="1087.7" y="411.3" class="st22" width="15.7" height="15.7"/>
	</g>
</g>
<g>
	<polyline class="st23" points="69.1,363 389.5,363 436.9,410.4 	"/>
	<polyline class="st23" points="127.1,501.4 541.6,501.4 589,548.9 	"/>
	<rect x="577.1" y="537" class="st22" width="23.7" height="23.7"/>
	<rect x="416.6" y="398.6" class="st22" width="23.7" height="23.7"/>
	<g>
		<path class="st23" d="M61.8,619.7h10.1c10.6,0,19.2-8.6,19.2-19.2v-56.2c0-17,13.8-30.7,30.7-30.7h58"/>
		<path class="st22" d="M184.3,513.5c0,2.5-2.1,4.6-4.6,4.6s-4.6-2.1-4.6-4.6s2.1-4.6,4.6-4.6S184.3,511,184.3,513.5z"/>
		<path class="st22" d="M66.3,619.7c0,2.5-2.1,4.6-4.6,4.6c-2.5,0-4.6-2.1-4.6-4.6s2.1-4.6,4.6-4.6
			C64.3,615.1,66.3,617.1,66.3,619.7z"/>
	</g>
</g>
</svg>
