<?xml version="1.0" encoding="utf-8"?>
<!-- Generator: Adobe Illustrator 26.3.1, SVG Export Plug-In . SVG Version: 6.00 Build 0)  -->
<svg version="1.1" id="Capa_1" xmlns="http://www.w3.org/2000/svg" xmlns:xlink="http://www.w3.org/1999/xlink" x="0px" y="0px"
	 viewBox="0 0 100 100" style="enable-background:new 0 0 100 100;" xml:space="preserve">
<style type="text/css">
	.st0{fill:#FFFFFF;}
</style>
<g>
	<g>
		<path class="st0" d="M2.8,55.5c-1.5-1.5-2.3-3.3-2.3-5.5c0-2.2,0.8-4.1,2.3-5.5c1.5-1.5,3.5-2.2,5.9-2.2c2.3,0,4.3,0.7,5.8,2.2
			c1.5,1.5,2.3,3.3,2.3,5.5c0,2.2-0.8,4.1-2.3,5.5c-1.5,1.5-3.4,2.2-5.8,2.2C6.4,57.8,4.4,57,2.8,55.5z"/>
	</g>
	<g>
		<path class="st0" d="M43.4,57.2H27.8l-2.6,7.5H17l14.1-39.2h9.1l14.1,39.2H46L43.4,57.2z M41.3,50.9l-5.7-16.4L30,50.9H41.3z"/>
		<path class="st0" d="M88.1,33.6L68.9,79.3h-8.3l6.7-15.5L54.8,33.6h8.8l8,21.7l8.1-21.7H88.1z"/>
		<path class="st0" d="M91.7,28.6c-0.9-0.9-1.4-2-1.4-3.3c0-1.3,0.5-2.4,1.4-3.3c0.9-0.9,2.1-1.3,3.4-1.3c1.4,0,2.5,0.4,3.4,1.3
			c0.9,0.9,1.4,2,1.4,3.3c0,1.3-0.5,2.4-1.4,3.3c-0.9,0.9-2.1,1.3-3.4,1.3C93.8,29.9,92.7,29.5,91.7,28.6z M99,33.6v31h-7.8v-31H99z
			"/>
	</g>
</g>
</svg>
